<svg width="56" height="55" viewBox="0 0 56 55" fill="none" xmlns="http://www.w3.org/2000/svg">
<g id="note">
<path id="Vector" fill-rule="evenodd" clip-rule="evenodd" d="M11.5666 11.3333C11.5666 9.76849 12.8351 8.49998 14.4 8.49998H28C28.9388 8.49998 29.7 7.73885 29.7 6.79998C29.7 5.8611 28.9388 5.09998 28 5.09998H14.4C10.9574 5.09998 8.16663 7.89074 8.16663 11.3333V43.0666C8.16663 46.5093 10.9574 49.3 14.4 49.3H41.6C45.0426 49.3 47.8333 46.5093 47.8333 43.0666V27.2C47.8333 26.2611 47.0721 25.5 46.1333 25.5C45.1944 25.5 44.4333 26.2611 44.4333 27.2V43.0666C44.4333 44.6316 43.1649 45.9 41.6 45.9H14.4C12.8351 45.9 11.5666 44.6316 11.5666 43.0666V11.3333ZM45.7915 9.34171C43.1361 6.68615 38.8305 6.68615 36.1749 9.34171L19.0786 26.438C18.7319 26.7848 18.5069 27.2347 18.4375 27.7203L17.369 35.1998C17.1553 36.6958 18.4375 37.9781 19.9335 37.7643L27.4131 36.6958C27.8986 36.6264 28.3486 36.4014 28.6954 36.0546L45.7915 18.9584C48.4471 16.3028 48.4471 11.9973 45.7915 9.34171ZM26.5584 33.3833L38.9797 20.9619L34.1714 16.1536L21.7499 28.575L20.9485 34.1848L26.5584 33.3833ZM43.3875 16.5542L41.3839 18.5577L36.5754 13.7494L38.5792 11.7459C39.9068 10.4181 42.0596 10.4181 43.3875 11.7459C44.7153 13.0737 44.7153 15.2264 43.3875 16.5542Z" fill="#1F2426"/>
</g>
</svg>
