<svg width="24" height="24" viewBox="0 0 24 24" fill="none" xmlns="http://www.w3.org/2000/svg">
<g id="person">
<path id="Union" fill-rule="evenodd" clip-rule="evenodd" d="M15.5 7C15.5 8.933 13.933 10.5 12 10.5C10.067 10.5 8.5 8.933 8.5 7C8.5 5.067 10.067 3.5 12 3.5C13.933 3.5 15.5 5.067 15.5 7ZM17 7C17 9.76142 14.7614 12 12 12C9.23858 12 7 9.76142 7 7C7 4.23858 9.23858 2 12 2C14.7614 2 17 4.23858 17 7ZM4.75 20C4.75 17.6528 6.65279 15.75 9 15.75H15C17.3472 15.75 19.25 17.6528 19.25 20V21C19.25 21.4142 19.5858 21.75 20 21.75C20.4142 21.75 20.75 21.4142 20.75 21V20C20.75 16.8244 18.1756 14.25 15 14.25H9C5.82436 14.25 3.25 16.8244 3.25 20V21C3.25 21.4142 3.58579 21.75 4 21.75C4.41421 21.75 4.75 21.4142 4.75 21V20Z" fill="#1F2426"/>
</g>
</svg>
