<svg width="185" height="48" viewBox="0 0 185 48" fill="none" xmlns="http://www.w3.org/2000/svg">
<g id="tv_color 1">
<path id="Vector" d="M87.0825 12.328L83.3584 23.0508L79.6665 12.328H76.1029L82.0422 28.364H84.7068L90.6461 12.328H87.0825Z" fill="#3BC0D6"/>
<path id="Vector_2" d="M93.9528 12.328L87.837 28.364H91.2882L92.6686 24.5276H97.8695L99.2661 28.364H102.701L96.5693 12.328H93.9528ZM96.794 21.5901H93.7281L95.253 17.3684L96.794 21.5901Z" fill="#3BC0D6"/>
<path id="Vector_3" d="M115.27 22.5853H111.979L111.883 23.1632C111.722 24.2065 111.418 24.9289 110.968 25.2981C110.519 25.6833 109.828 25.876 108.929 25.876C108.031 25.876 107.228 25.5068 106.682 24.7523C106.104 23.9337 105.815 22.7779 105.815 21.3332V19.4391C105.815 17.9141 106.12 16.7423 106.73 15.9397C107.308 15.2013 108.079 14.8321 109.106 14.8321C110.133 14.8321 110.567 15.0408 111 15.4421C111.45 15.8595 111.739 16.5818 111.883 17.5931L111.963 18.171H115.238L115.158 17.4326C114.981 15.731 114.355 14.3666 113.296 13.3874C112.236 12.4083 110.808 11.8946 109.09 11.8946C107.372 11.8946 106.634 12.2156 105.623 12.8256C104.611 13.4516 103.841 14.3506 103.295 15.4903C102.765 16.6139 102.493 17.9141 102.493 19.3749V21.253C102.493 23.4842 103.07 25.3141 104.226 26.6786C105.398 28.0751 106.971 28.7814 108.913 28.7814C110.856 28.7814 112.124 28.2998 113.199 27.3527C114.291 26.4057 114.949 25.0413 115.142 23.3237L115.238 22.5692L115.27 22.5853Z" fill="#3BC0D6"/>
<path id="Vector_4" d="M120.936 12.328L114.805 28.364H118.256L119.636 24.5276H124.837L126.234 28.364H129.669L123.537 12.328H120.936ZM123.778 21.5901H120.712L122.237 17.3684L123.778 21.5901Z" fill="#3BC0D6"/>
<path id="Vector_5" d="M138.883 23.1632C138.722 24.2065 138.417 24.9128 137.968 25.2981C137.518 25.6833 136.828 25.876 135.929 25.876C135.03 25.876 134.228 25.5068 133.682 24.7523C133.104 23.9337 132.815 22.7779 132.815 21.3332V19.4391C132.815 17.9141 133.12 16.7423 133.73 15.9397C134.308 15.2013 135.078 14.8321 136.106 14.8321C137.133 14.8321 137.566 15.0408 138 15.4421C138.449 15.8595 138.738 16.5818 138.883 17.5931L138.963 18.171H142.238L142.157 17.4326C141.981 15.731 141.355 14.3666 140.295 13.3874C139.236 12.4083 137.807 11.8946 136.09 11.8946C134.372 11.8946 133.634 12.2156 132.622 12.8256C131.627 13.4516 130.841 14.3506 130.295 15.4903C129.765 16.6139 129.492 17.9141 129.492 19.3749V21.253C129.492 23.4842 130.07 25.3141 131.226 26.6786C132.398 28.0751 133.971 28.7814 135.913 28.7814C137.855 28.7814 139.123 28.2998 140.199 27.3527C141.29 26.4057 141.949 25.0413 142.141 23.3237L142.238 22.5692H138.947L138.851 23.1471L138.883 23.1632Z" fill="#3BC0D6"/>
<path id="Vector_6" d="M147.438 12.328H144.148V28.364H147.438V12.328Z" fill="#3BC0D6"/>
<path id="Vector_7" d="M158.787 12.8417C157.792 12.1996 156.62 11.8785 155.32 11.8785C154.02 11.8785 152.88 12.1996 151.869 12.8417C150.857 13.4837 150.071 14.4148 149.541 15.6187C149.011 16.7905 148.739 18.1389 148.739 19.6317V21.1727C148.739 22.6495 149.028 23.9658 149.557 25.1055C150.103 26.2773 150.89 27.1922 151.885 27.8183C152.88 28.4603 154.036 28.7814 155.32 28.7814C156.604 28.7814 157.792 28.4603 158.787 27.8343C159.782 27.1922 160.569 26.2773 161.099 25.0894C161.612 23.9337 161.885 22.5692 161.885 21.0443V19.6477C161.885 18.1228 161.628 16.7744 161.099 15.6026C160.553 14.3987 159.782 13.4677 158.787 12.8417ZM155.32 25.7957C154.293 25.7957 153.522 25.4104 152.928 24.6239C152.302 23.7892 151.997 22.5853 151.997 21.0443V19.5033C152.013 18.0104 152.334 16.8386 152.944 16.02C153.522 15.2655 154.277 14.8963 155.288 14.8963C156.299 14.8963 157.118 15.2655 157.68 16.02C158.29 16.8226 158.595 18.0425 158.595 19.6156V21.1727C158.579 22.7137 158.274 23.9016 157.664 24.6881C157.102 25.4265 156.331 25.7796 155.304 25.7796" fill="#3BC0D6"/>
<path id="Vector_8" d="M172.881 12.328V22.1037L166.508 12.328H163.523V28.364H166.829V18.6365L173.17 28.364H176.156V12.328H172.881Z" fill="#3BC0D6"/>
<path id="Vector_9" d="M52.6669 45.9571V40.9007H54.8981C55.5241 40.9007 55.9254 40.981 56.1181 41.1575C56.3107 41.3341 56.407 41.6873 56.407 42.233C56.407 42.7788 56.1983 43.148 55.7649 43.2925C56.2946 43.4369 56.5675 43.8222 56.5675 44.4964C56.5675 45.1706 56.4552 45.4113 56.2465 45.62C56.0378 45.8448 55.6686 45.9411 55.1389 45.9411L52.6669 45.9571ZM53.2447 43.1159H54.7376C55.2192 43.1159 55.5241 43.0517 55.6526 42.9393C55.797 42.827 55.8612 42.5701 55.8612 42.1849C55.8612 41.7996 55.797 41.6231 55.6847 41.5267C55.5723 41.4304 55.2994 41.3823 54.8981 41.3823H53.2447V43.1159ZM53.2447 45.4756H54.9784C55.4118 45.4756 55.7007 45.4113 55.8291 45.299C55.9575 45.1866 56.0378 44.9458 56.0378 44.5927C56.0378 44.2395 55.9736 43.8703 55.8291 43.758C55.7007 43.6617 55.3315 43.5975 54.7215 43.5975H53.2447V45.4756Z" fill="#232020"/>
<path id="Vector_10" d="M62.6994 40.9007L60.7892 43.8382V45.9571H60.2113V43.8382L58.3493 40.9007H59.0074L60.099 42.6022L60.3077 42.9393C60.3398 42.9714 60.3719 43.0356 60.404 43.0998L60.5003 43.2604C60.5484 43.1801 60.5805 43.132 60.5966 43.0998L60.6929 42.9393L60.9016 42.6022L61.9771 40.9007H62.6513H62.6994Z" fill="#232020"/>
<path id="Vector_11" d="M69.8747 43.4369H72.0418C72.0418 43.5654 72.0418 43.758 72.0418 43.9827C72.0418 44.8977 71.9294 45.4595 71.7047 45.6682C71.4799 45.8769 70.9021 45.9892 69.955 45.9892C69.0079 45.9892 68.4943 45.8608 68.2374 45.604C67.9806 45.3471 67.8522 44.7693 67.8522 43.8864V43.148V42.6985C67.8522 41.9441 67.9966 41.4465 68.2695 41.2057C68.5585 40.9649 69.1203 40.8365 69.971 40.8365C70.8218 40.8365 71.3836 40.9168 71.6405 41.0773C71.8973 41.2378 72.0097 41.607 72.0097 42.1528V42.3454H71.4478V42.217C71.4478 41.7996 71.3676 41.5428 71.191 41.4465C71.0144 41.3502 70.581 41.302 69.8747 41.302C69.1684 41.302 68.7992 41.3823 68.6387 41.5428C68.4782 41.7033 68.3979 42.0886 68.3979 42.7146V43.3888V44.1111C68.3979 44.7532 68.4943 45.1385 68.6708 45.2829C68.8474 45.4274 69.345 45.5077 70.1476 45.5077C70.9502 45.5077 71.1428 45.4435 71.2713 45.299C71.4157 45.1545 71.496 44.8014 71.496 44.2074C71.496 43.6135 71.496 44.063 71.4639 43.9025H69.8587V43.4209L69.8747 43.4369Z" fill="#232020"/>
<path id="Vector_12" d="M74.273 45.9571V40.9007H76.6808C77.2266 40.9007 77.6118 41.0131 77.8366 41.2218C78.0613 41.4304 78.1737 41.8157 78.1737 42.3454C78.1737 42.8751 78.1095 43.1319 77.9971 43.3246C77.8687 43.5011 77.6439 43.6296 77.3069 43.6777C77.8366 43.7259 78.1095 44.0469 78.1095 44.6729V45.9732H77.5316V44.8174C77.5316 44.2235 77.2748 43.9346 76.7611 43.9346H74.8509V45.9892H74.273V45.9571ZM74.8509 43.4209H76.5043C76.9377 43.4209 77.2426 43.3567 77.3871 43.2283C77.5476 43.0998 77.6279 42.843 77.6279 42.4738C77.6279 42.1046 77.5637 41.7194 77.4513 41.5749C77.339 41.4304 77.0821 41.3662 76.6969 41.3662H74.8509V43.4048V43.4209Z" fill="#232020"/>
<path id="Vector_13" d="M83.9524 40.9007H84.5303V44.4482C84.5303 45.0903 84.4019 45.5077 84.145 45.7163C83.8882 45.925 83.3424 46.0213 82.5238 46.0213C81.7051 46.0213 81.2236 45.925 80.9507 45.7324C80.6778 45.5398 80.5333 45.1706 80.5333 44.6248V40.9168H81.1112V44.4643C81.1112 44.9458 81.1915 45.2508 81.352 45.3632C81.5125 45.4916 81.8978 45.5398 82.5077 45.5398C83.1177 45.5398 83.5832 45.4756 83.7437 45.3632C83.9043 45.2508 83.9845 44.9458 83.9845 44.4643V40.9168L83.9524 40.9007Z" fill="#232020"/>
<path id="Vector_14" d="M87.0023 45.9571V40.9007H89.3138C89.8917 40.9007 90.2769 41.0131 90.4856 41.2378C90.6943 41.4625 90.7906 41.8638 90.7906 42.4738C90.7906 43.0838 90.6782 43.453 90.4696 43.6617C90.2609 43.8703 89.8435 43.9827 89.2496 43.9827H89.0249H87.5641V45.9732H86.9863L87.0023 45.9571ZM87.5802 43.4851H88.9286C89.4904 43.4851 89.8596 43.4209 90.0201 43.3085C90.1806 43.1962 90.2609 42.9233 90.2609 42.5059C90.2609 42.0886 90.2127 41.7033 90.1004 41.5749C89.988 41.4465 89.7312 41.3823 89.3299 41.3823H89.1051H87.5641L87.5802 43.4851Z" fill="#232020"/>
<path id="Vector_15" d="M94.8518 40.8526C95.8149 40.8526 96.4088 40.997 96.6496 41.2699C96.8904 41.5428 97.0028 42.2491 97.0028 43.3567C97.0028 44.4643 96.8904 45.299 96.6657 45.5879C96.4409 45.8769 95.831 46.0053 94.8518 46.0053C93.8726 46.0053 93.2787 45.8608 93.0379 45.5879C92.7971 45.315 92.6848 44.5927 92.6848 43.4209V42.5862C92.6848 41.912 92.8453 41.4625 93.1503 41.2057C93.4552 40.9649 94.0171 40.8365 94.8518 40.8365M94.8518 41.3181C94.0492 41.3181 93.5837 41.4144 93.4553 41.591C93.3268 41.7675 93.2466 42.3775 93.2466 43.4209C93.2466 44.4643 93.3108 45.0743 93.4553 45.2508C93.5837 45.4274 94.0652 45.5237 94.8518 45.5237C95.6383 45.5237 96.1199 45.4274 96.2644 45.2508C96.3928 45.0743 96.473 44.4643 96.473 43.4209V42.6183C96.473 42.0565 96.3767 41.7033 96.1841 41.5588C95.9915 41.4144 95.5581 41.3341 94.8518 41.3341" fill="#232020"/>
<path id="Vector_16" d="M102.589 45.9571V40.9007H104.9C105.478 40.9007 105.863 41.0131 106.072 41.2378C106.281 41.4625 106.377 41.8638 106.377 42.4738C106.377 43.0838 106.265 43.453 106.056 43.6617C105.847 43.8703 105.43 43.9827 104.836 43.9827H104.611H103.151V45.9732H102.573L102.589 45.9571ZM103.167 43.4851H104.515C105.077 43.4851 105.446 43.4209 105.607 43.3085C105.767 43.1962 105.847 42.9233 105.847 42.5059C105.847 42.0886 105.799 41.7033 105.687 41.5749C105.575 41.4465 105.318 41.3823 104.916 41.3823H104.692H103.151L103.167 43.4851Z" fill="#232020"/>
<path id="Vector_17" d="M108.576 45.9571V40.9007H110.984C111.53 40.9007 111.915 41.0131 112.14 41.2218C112.365 41.4304 112.477 41.8157 112.477 42.3454C112.477 42.8751 112.413 43.1319 112.3 43.3246C112.188 43.5011 111.947 43.6296 111.61 43.6777C112.14 43.7259 112.413 44.0469 112.413 44.6729V45.9732H111.835V44.8174C111.835 44.2235 111.578 43.9346 111.064 43.9346H109.154V45.9892H108.576V45.9571ZM109.154 43.4209H110.808C111.241 43.4209 111.546 43.3567 111.69 43.2283C111.851 43.0998 111.931 42.843 111.931 42.4738C111.931 42.1046 111.867 41.7194 111.755 41.5749C111.642 41.4304 111.385 41.3662 111 41.3662H109.154V43.4048V43.4209Z" fill="#232020"/>
<path id="Vector_18" d="M115.19 41.3823V43.0998H117.758V43.5814H115.19V45.4756H117.87V45.9571H114.612V40.9007H117.87V41.3823H115.19Z" fill="#232020"/>
<path id="Vector_19" d="M123.585 42.2651H123.023C123.023 41.8638 122.959 41.5909 122.814 41.4946C122.686 41.3823 122.365 41.3341 121.851 41.3341C121.338 41.3341 120.872 41.3823 120.696 41.4946C120.519 41.607 120.439 41.8317 120.439 42.2009C120.439 42.5701 120.503 42.8591 120.647 42.9393C120.776 43.0356 121.193 43.0838 121.851 43.1159C122.638 43.148 123.136 43.2443 123.36 43.4209C123.569 43.5814 123.681 43.9506 123.681 44.5285C123.681 45.1064 123.553 45.5558 123.312 45.7324C123.071 45.909 122.526 46.0053 121.691 46.0053C120.856 46.0053 120.471 45.909 120.23 45.7324C119.989 45.5558 119.861 45.1706 119.861 44.6248V44.4001H120.423V44.5285C120.423 44.9779 120.487 45.2669 120.631 45.3792C120.776 45.4916 121.129 45.5398 121.691 45.5398C122.253 45.5398 122.75 45.4916 122.895 45.3792C123.039 45.2669 123.119 44.9779 123.119 44.4964C123.119 44.0148 123.071 43.9827 122.959 43.8864C122.863 43.7901 122.638 43.7259 122.317 43.7098L121.723 43.6777L121.161 43.6456C120.31 43.5814 119.877 43.148 119.877 42.3133C119.877 41.4786 120.005 41.3502 120.246 41.1575C120.503 40.9649 121.001 40.8686 121.739 40.8686C122.477 40.8686 122.991 40.9649 123.216 41.1415C123.441 41.3181 123.553 41.7033 123.553 42.2972" fill="#232020"/>
<path id="Vector_20" d="M126.458 40.9007H125.88V45.9571H126.458V40.9007Z" fill="#232020"/>
<path id="Vector_21" d="M128.946 45.9571V40.9007H131.29C132.012 40.9007 132.51 41.0612 132.767 41.3823C133.024 41.7033 133.152 42.3133 133.152 43.2122C133.152 44.1111 133.04 45.0421 132.815 45.4113C132.59 45.7805 132.125 45.9571 131.451 45.9571H128.962H128.946ZM129.524 45.4756H131.178C131.788 45.4756 132.173 45.3471 132.349 45.1064C132.526 44.8656 132.606 44.3198 132.606 43.4851C132.606 42.6504 132.526 41.9923 132.382 41.7354C132.237 41.4946 131.868 41.3662 131.29 41.3662H129.524V45.4756Z" fill="#232020"/>
<path id="Vector_22" d="M135.785 41.3823V43.0998H138.353V43.5814H135.785V45.4756H138.449V45.9571H135.207V40.9007H138.449V41.3823H135.785Z" fill="#232020"/>
<path id="Vector_23" d="M145.031 40.9007V45.9571H144.083L141.965 42.522L141.627 41.9441L141.451 41.6712L141.29 41.3823H141.274V41.5749V41.7675V42.1528V45.9571H140.713V40.9007H141.644L143.49 43.9185L143.971 44.7051L144.212 45.1064L144.453 45.4916H144.469L144.453 45.315V45.1224V44.7372V40.9007H145.031Z" fill="#232020"/>
<path id="Vector_24" d="M149.268 41.4304V45.9571H148.706V41.4304H147.053V40.9007H150.906V41.4304H149.268Z" fill="#232020"/>
<path id="Vector_25" d="M153.297 41.3823V43.0998H155.866V43.5814H153.297V45.4756H155.978V45.9571H152.72V40.9007H155.978V41.3823H153.297Z" fill="#232020"/>
<path id="Vector_26" d="M43.5493 14.2061V28.4443H41.3983V14.2061H36.5667V12.328H48.3489V14.2061H43.5493Z" fill="#232020"/>
<path id="Vector_27" d="M60.1632 28.4443L55.765 21.6061H51.6075V28.4443H49.5046V12.3441H55.5081C56.0057 12.3441 56.5355 12.328 57.0331 12.3441C59.2643 12.4404 60.3237 13.1467 60.9979 13.9653C61.4313 14.495 61.9771 15.4421 61.9771 17.0473C61.9771 18.6525 61.8808 19.9046 59.8261 20.948C59.4409 21.1567 59.0556 21.3172 58.1888 21.4777L62.6995 28.4604H60.1472L60.1632 28.4443ZM58.5901 14.5753C57.7394 14.0777 56.7441 14.1258 55.781 14.1258H51.6075V19.8083H55.8934C57.0973 19.8083 58.542 19.8243 59.3606 18.7167C59.7298 18.2191 59.8582 17.6733 59.8582 17.0473C59.8582 16.4213 59.8101 15.3297 58.5901 14.5753Z" fill="#232020"/>
<path id="Vector_28" d="M75.6374 28.4443L73.8877 23.5163H67.7558L65.958 28.4443H63.6786L69.8105 12.3441H72.0417L77.9007 28.4443H75.6374ZM70.886 14.9766L68.43 21.7024H73.2456L70.902 14.9766H70.886Z" fill="#232020"/>
<path id="Vector_29" d="M157.262 5.74664L154.501 10.1449L159.172 6.05163L157.262 5.74664Z" fill="#00ADC5"/>
<path id="Vector_30" d="M154.469 10.1289L157.23 5.73059L156.139 4.15749L154.469 10.1289Z" fill="#3BC0D6"/>
<path id="Vector_31" d="M24.1423 21.0924L23.9337 21.1245C23.5645 21.1727 23.1792 21.2048 22.81 21.2369H22.6334C22.5211 21.269 22.3927 21.269 22.2642 21.2851C22.0556 21.2851 21.8308 21.3011 21.6222 21.3172C21.5098 21.3172 20.964 21.3332 20.964 21.3332H19.9367C19.6317 21.3332 19.3267 21.3172 19.0378 21.3011C18.8773 21.3011 18.7167 21.3011 18.5562 21.2851C17.7857 21.2209 16.7905 21.1406 15.8113 20.9961L15.1532 20.8998L14.495 20.7714C14.2061 20.7232 13.9172 20.659 13.6282 20.5948C13.4838 20.5627 13.3393 20.5306 13.2109 20.4985C12.2156 20.2577 11.4451 20.049 10.787 19.8404C10.1289 19.6477 9.45469 19.407 8.66813 19.118C7.31976 18.6044 6.30848 18.1228 5.65034 17.8018L2.85728 23.2755C2.43993 24.0942 2.76097 25.1215 3.59568 25.5389L5.02431 26.2773C5.00826 26.3094 4.99221 26.3415 4.97615 26.3736C4.54275 27.1762 4.57485 28.043 5.04036 28.2838C5.50587 28.5245 6.22822 28.0751 6.66162 27.2564C6.67768 27.2083 6.70978 27.1762 6.72583 27.128L13.3553 30.515C13.0022 31.2855 13.0504 32.04 13.4838 32.2807C13.9172 32.5215 14.5914 32.1202 15.0248 31.3818L17.1436 32.4734C17.9623 32.8907 18.9896 32.5697 19.407 31.735L24.8968 21.0282C24.6721 21.0603 24.4313 21.0924 24.2066 21.1245" fill="#00ADC5"/>
<path id="Vector_32" d="M27.0157 13.0664H26.9675C26.807 13.1306 26.6304 13.2109 26.4538 13.3072C26.2131 13.4195 25.9723 13.564 25.6994 13.6924C25.4265 13.8208 25.1536 13.9493 24.8647 14.0777C24.5757 14.2061 24.2708 14.3345 23.9497 14.4629C23.6447 14.6074 23.3076 14.7198 22.9705 14.8482C22.6334 14.9766 22.2803 15.089 21.9271 15.2174C21.574 15.3458 21.2048 15.4421 20.8356 15.5545C20.4664 15.6668 20.0812 15.7631 19.712 15.8595L19.423 15.9397L19.1341 16.0039C18.9415 16.0521 18.7488 16.1002 18.5562 16.1323C18.171 16.2126 17.7697 16.2929 17.3844 16.3731C16.5979 16.5176 15.8113 16.646 15.0248 16.7263C14.8321 16.7423 14.6395 16.7744 14.4469 16.7905C14.2543 16.8065 14.0616 16.8226 13.869 16.8386C13.4838 16.8707 13.1146 16.8868 12.7293 16.9189C11.9909 16.951 11.2686 16.9831 10.5944 16.9671C9.92019 16.9671 9.27811 16.935 8.68418 16.9028C7.51238 16.8386 6.9345 16.646 6.26031 16.5497C6.80609 16.9028 7.72105 17.4326 8.95706 18.0425C9.66336 18.3796 10.2573 18.6525 10.8512 18.8933C11.4612 19.1501 12.1193 19.3909 13.0343 19.6959C13.1627 19.728 13.3072 19.7762 13.4356 19.8243C13.6924 19.9046 13.9493 19.9848 14.2061 20.0491L14.8161 20.2256L15.4261 20.3701C16.3089 20.5948 17.2078 20.7393 17.9623 20.8677C18.1068 20.8838 18.2673 20.8998 18.4278 20.9319C18.7007 20.964 18.9736 21.0122 19.2465 21.0282L20.2256 21.1245C20.2256 21.1245 20.7553 21.1566 20.8517 21.1566C21.1727 21.1727 21.4777 21.1888 21.7987 21.1888H21.9914C22.3606 21.1888 22.6976 21.1888 23.0508 21.1888H23.2755C23.4842 21.1888 23.6929 21.1727 23.9016 21.1566C24.0139 21.1566 24.1423 21.1566 24.2547 21.1245C24.3831 21.1245 24.5115 21.1085 24.6399 21.0924C24.7042 21.0924 24.7523 21.0924 24.8165 21.0924L27.7541 15.3458C28.1714 14.5271 27.8504 13.4998 27.0157 13.0825" fill="#3BC0D6"/>
<path id="Vector_33" d="M27.1762 3.98092L21.3814 1.07549C20.964 0.866813 20.4504 1.02733 20.2417 1.44469L16.8707 7.86552L15.4421 7.12713L13.4838 6.11584C12.6651 5.69849 11.6378 6.01953 11.2204 6.85424L6.95056 15.1853C7.38397 15.2816 7.78527 15.2976 8.39525 15.3458C8.61998 15.3618 8.86076 15.3939 9.16575 15.4261C9.47074 15.4582 9.79178 15.5063 10.1289 15.5384C10.3857 15.5705 10.6586 15.5866 10.9315 15.6026C11.5575 15.6508 12.2317 15.6829 12.938 15.6989C13.0343 15.6989 13.1146 15.6989 13.2109 15.6989C13.4677 15.6989 13.7406 15.6989 14.0135 15.6989C14.1901 15.6989 14.3827 15.6989 14.5592 15.6989C14.7358 15.6989 14.9284 15.6989 15.1211 15.6829C15.8595 15.6508 16.6139 15.5866 17.3844 15.5063C17.7697 15.4582 18.1389 15.41 18.5241 15.3458C18.7167 15.3137 18.8933 15.2816 19.0859 15.2495L19.2625 15.2174H19.3588C19.3588 15.2013 19.4872 15.1853 19.4872 15.1853L19.6478 15.1532C20.017 15.089 20.3862 15.0087 20.7554 14.9284C20.8838 14.8963 21.0282 14.8642 21.1567 14.8321C21.253 14.8161 21.3493 14.784 21.4295 14.7679C21.558 14.7358 21.6864 14.7037 21.8148 14.6716C22.0074 14.6234 22.2 14.5753 22.3927 14.5111C22.5532 14.4629 22.6977 14.4308 22.8421 14.3827C22.9866 14.3345 23.115 14.3024 23.2595 14.2543C23.4521 14.19 23.6447 14.1419 23.8213 14.0777C23.9818 14.0295 24.1423 13.9653 24.2868 13.9172C24.4313 13.869 24.5918 13.8208 24.7363 13.7566C24.9289 13.6764 25.1215 13.6122 25.2981 13.5319C25.3944 13.4998 25.4907 13.4516 25.587 13.4195C25.8278 13.3232 26.0365 13.2269 26.2452 13.1467C26.2773 13.1467 26.3254 13.1146 26.3575 13.0985C26.4217 13.0664 26.4859 13.0503 26.5502 13.0182C26.6304 12.9861 26.7107 12.954 26.7909 12.9219L25.0573 12.0391L24.1423 11.5736L27.5454 5.08851C27.7541 4.67116 27.5935 4.17354 27.1762 3.98092ZM26.1328 5.55402L23.4361 10.7067C23.3558 10.8512 23.2434 10.9636 23.099 11.0438L22.1519 10.5623L18.3315 8.60392L17.882 8.37919C17.882 8.25077 17.8981 8.1063 17.9783 7.97789L20.6751 2.82517C20.8838 2.40781 21.3974 2.24729 21.8148 2.45597L25.7797 4.43038C26.197 4.63905 26.3575 5.13667 26.1328 5.55402Z" fill="#3BC0D6"/>
<path id="Vector_34" d="M176.172 32.682H36.5667V33.581H176.172V32.682Z" fill="#3BC0D6"/>
<g id="Group">
<path id="Vector_35" d="M182.592 9.90413C182.592 11.3328 181.469 12.4564 180.008 12.4564C178.563 12.4564 177.408 11.3328 177.408 9.90413C177.408 8.5076 178.563 7.38396 180.008 7.38396C181.469 7.38396 182.592 8.5076 182.592 9.90413ZM178.066 9.90413C178.066 11.0278 178.9 11.9106 180.04 11.9106C181.148 11.9106 181.966 11.0117 181.966 9.92019C181.966 8.79654 181.148 7.89762 180.024 7.89762C178.9 7.89762 178.066 8.79654 178.066 9.90413ZM179.623 11.2365H179.045V8.71628C179.27 8.66812 179.591 8.63602 180.008 8.63602C180.49 8.63602 180.698 8.71628 180.891 8.81259C181.035 8.92496 181.132 9.11758 181.132 9.35836C181.132 9.63125 180.923 9.85598 180.602 9.93624V9.96834C180.843 10.0647 180.987 10.2412 181.067 10.5783C181.148 10.9636 181.196 11.1241 181.244 11.2044H180.618C180.538 11.108 180.49 10.8833 180.425 10.5944C180.377 10.3215 180.233 10.1931 179.896 10.1931H179.623V11.2365ZM179.639 9.80782H179.912C180.233 9.80782 180.49 9.69546 180.49 9.43862C180.49 9.21389 180.313 9.05337 179.944 9.05337C179.783 9.05337 179.687 9.06943 179.623 9.08548V9.80782H179.639Z" fill="#464444"/>
</g>
</g>
</svg>
