<svg width="56" height="55" viewBox="0 0 56 55" fill="none" xmlns="http://www.w3.org/2000/svg">
<g id="wallet">
<path id="Vector" fill-rule="evenodd" clip-rule="evenodd" d="M45.5667 14.4013V11.3333C45.5667 7.89074 42.776 5.09998 39.3334 5.09998H12.1334C8.69079 5.09998 5.90002 7.89074 5.90002 11.3333V43.0666C5.90002 46.5093 8.69079 49.3 12.1334 49.3H43.8667C47.3093 49.3 50.1 46.5093 50.1 43.0666V20.4C50.1 17.5467 48.1831 15.1413 45.5667 14.4013ZM9.30002 11.3333C9.30002 9.76849 10.5685 8.49998 12.1334 8.49998H39.3334C40.8983 8.49998 42.1667 9.76849 42.1667 11.3333V14.1666H12.1334C10.5685 14.1666 9.30002 12.8981 9.30002 11.3333ZM9.30002 16.887C10.1501 17.3215 11.1131 17.5666 12.1334 17.5666H43.8667C45.4316 17.5666 46.7 18.8352 46.7 20.4V24.9333H38.7667C35.0111 24.9333 31.9667 27.9777 31.9667 31.7333C31.9667 35.489 35.0111 38.5333 38.7667 38.5333H46.7V43.0666C46.7 44.6316 45.4316 45.9 43.8667 45.9H12.1334C10.5685 45.9 9.30002 44.6316 9.30002 43.0666V16.887ZM38.7667 28.3333H46.7V35.1333H38.7667C36.889 35.1333 35.3667 33.611 35.3667 31.7333C35.3667 29.8556 36.889 28.3333 38.7667 28.3333Z" fill="#1F2426"/>
</g>
</svg>
