<svg width="32" height="32" viewBox="0 0 32 32" fill="none" xmlns="http://www.w3.org/2000/svg">
<g id="Icon right">
<path id="Vector" fill-rule="evenodd" clip-rule="evenodd" d="M5.66663 8.66666C5.66663 8.11438 6.11435 7.66666 6.66663 7.66666H25.3333C25.8856 7.66666 26.3333 8.11438 26.3333 8.66666C26.3333 9.21894 25.8856 9.66666 25.3333 9.66666H6.66663C6.11435 9.66666 5.66663 9.21894 5.66663 8.66666ZM5.66663 23.3333C5.66663 22.7811 6.11435 22.3333 6.66663 22.3333H25.3333C25.8856 22.3333 26.3333 22.7811 26.3333 23.3333C26.3333 23.8856 25.8856 24.3333 25.3333 24.3333H6.66663C6.11435 24.3333 5.66663 23.8856 5.66663 23.3333ZM6.66663 15C6.11435 15 5.66663 15.4477 5.66663 16C5.66663 16.5523 6.11435 17 6.66663 17H25.3333C25.8856 17 26.3333 16.5523 26.3333 16C26.3333 15.4477 25.8856 15 25.3333 15H6.66663Z" fill="#00BCD4"/>
</g>
</svg>
