<svg width="24" height="24" viewBox="0 0 24 24" fill="none" xmlns="http://www.w3.org/2000/svg">
<g id="Icon right">
<path id="Vector" fill-rule="evenodd" clip-rule="evenodd" d="M12 2.25C6.61522 2.25 2.25 6.61522 2.25 12C2.25 17.3848 6.61522 21.75 12 21.75C17.3848 21.75 21.75 17.3848 21.75 12C21.75 6.61522 17.3848 2.25 12 2.25ZM4.06055 9.75C3.85825 10.4652 3.75 11.22 3.75 12C3.75 12.78 3.85825 13.5348 4.06055 14.25H7.37133C7.29177 13.5262 7.25 12.7725 7.25 12C7.25 11.2275 7.29177 10.4738 7.37133 9.75H4.06055ZM4.64956 8.25H7.59795C7.80925 7.16424 8.11084 6.17602 8.48621 5.33143C8.64888 4.96543 8.82801 4.62055 9.02341 4.30331C7.12609 5.03757 5.56809 6.45319 4.64956 8.25ZM8.8811 9.75C8.79596 10.4637 8.75 11.2179 8.75 12C8.75 12.7821 8.79596 13.5363 8.8811 14.25H15.1189C15.204 13.5363 15.25 12.7821 15.25 12C15.25 11.2179 15.204 10.4637 15.1189 9.75H8.8811ZM14.8711 8.25H9.12893C9.31545 7.38058 9.56359 6.60066 9.85693 5.94064C10.1934 5.18359 10.5746 4.61737 10.9601 4.25056C11.3416 3.88743 11.6918 3.75 12 3.75C12.3082 3.75 12.6584 3.88743 13.0399 4.25056C13.4254 4.61737 13.8066 5.18359 14.1431 5.94064C14.4364 6.60066 14.6846 7.38058 14.8711 8.25ZM16.6287 9.75C16.7082 10.4738 16.75 11.2275 16.75 12C16.75 12.7725 16.7082 13.5262 16.6287 14.25H19.9395C20.1417 13.5348 20.25 12.78 20.25 12C20.25 11.22 20.1417 10.4652 19.9395 9.75H16.6287ZM19.3504 8.25H16.402C16.1907 7.16424 15.8892 6.17602 15.5138 5.33143C15.3511 4.96543 15.172 4.62055 14.9766 4.30331C16.8739 5.03757 18.4319 6.45319 19.3504 8.25ZM9.02342 19.6967C7.12609 18.9624 5.56809 17.5468 4.64956 15.75H7.59795C7.80925 16.8358 8.11084 17.824 8.48621 18.6686C8.64888 19.0346 8.82801 19.3795 9.02342 19.6967ZM9.85693 18.0594C9.56359 17.3993 9.31545 16.6194 9.12893 15.75H14.8711C14.6846 16.6194 14.4364 17.3993 14.1431 18.0594C13.8066 18.8164 13.4254 19.3826 13.0399 19.7494C12.6584 20.1126 12.3082 20.25 12 20.25C11.6918 20.25 11.3416 20.1126 10.9601 19.7494C10.5746 19.3826 10.1934 18.8164 9.85693 18.0594ZM15.5138 18.6686C15.8892 17.824 16.1907 16.8358 16.402 15.75H19.3504C18.4319 17.5468 16.8739 18.9624 14.9766 19.6967C15.172 19.3795 15.3511 19.0346 15.5138 18.6686Z" fill="#00BCD4"/>
</g>
</svg>
