<svg width="56" height="55" viewBox="0 0 56 55" fill="none" xmlns="http://www.w3.org/2000/svg">
<g id="palm">
<path id="Vector" d="M50.3037 19.6837C48.5882 16.5322 45.9656 14.4311 42.5513 13.4627C41.5947 13.1836 40.539 13.0359 39.3679 12.9703C40.539 11.7884 41.7101 10.623 42.8977 9.4576L44.4482 7.91465C45.1409 7.20884 45.1904 6.65075 45.1079 6.30605C45.0255 5.96135 44.7286 5.48533 43.7884 5.15705C41.1823 4.28709 38.2958 4.33633 35.6402 5.28836C32.9846 6.25681 30.7249 8.06238 29.2899 10.3932C29.2569 10.4425 29.1909 10.5574 29.1414 10.6394C29.1085 10.5902 29.059 10.5245 28.993 10.426C25.958 5.55099 19.9706 3.3843 14.445 5.15705C13.7522 5.38685 13.3069 5.78079 13.1749 6.27322C13.0925 6.61792 13.1255 7.17601 13.7522 7.81617C14.7089 8.78461 15.847 9.93361 17.0511 11.0826C17.5954 11.6079 18.1562 12.1167 18.7005 12.6256C18.8325 12.7405 18.948 12.8554 19.0799 12.9703C19.0139 12.9703 18.948 12.9703 18.8985 12.9703C14.0491 13.2001 10.3874 15.416 8.01222 19.6016C7.56687 20.3895 7.4844 21.0297 7.7648 21.5057C8.0452 21.9817 8.65549 22.2279 9.56268 22.2279C11.41 22.2279 13.2739 22.2279 15.1213 22.2279H16.9356C13.4224 25.8391 12.3502 30.1232 13.7357 34.9654C14.0161 35.9339 14.4945 36.2458 14.8409 36.3442C15.2037 36.4427 15.781 36.3935 16.5233 35.6548C18.0902 34.0955 19.6737 32.5197 21.2407 30.9603C22.3788 29.8278 23.5169 28.6952 24.655 27.5626C24.9684 27.2507 25.2818 26.9553 25.6446 26.5941L25.5292 28.6295C25.4302 30.2709 25.3477 31.8467 25.2488 33.4061L25.1333 35.2773C24.9849 37.8544 24.8364 40.4314 24.688 43.0249L24.5725 44.8797C24.4241 47.3747 24.2756 49.9517 24.1107 52.4959C24.0612 53.1361 24.2096 53.6121 24.5065 53.9404C24.8034 54.2523 25.2323 54.4 25.7931 54.4164C26.8157 54.4164 27.8549 54.4164 28.9435 54.4164C30.0321 54.4164 31.2032 54.4164 32.4073 54.4164C32.9846 54.4164 33.4135 54.2523 33.7104 53.9404C34.0238 53.6121 34.1392 53.1525 34.1062 52.5123C33.9083 49.3936 33.7104 46.2257 33.5454 43.1562V42.8279C33.463 41.6953 33.397 40.5627 33.331 39.4301C33.265 38.314 33.2155 37.2142 33.1496 36.098C33.0671 34.7685 32.9846 33.4225 32.9186 32.0929C32.8032 30.2709 32.7042 28.4325 32.6052 26.6106C32.6382 26.6434 32.6712 26.6762 32.7042 26.709C33.8258 27.8088 34.9309 28.925 36.0526 30.0247C37.9494 31.9124 39.8463 33.8 41.7431 35.6713C42.4853 36.4099 43.0626 36.4591 43.4255 36.3607C43.7719 36.2622 44.2502 35.9503 44.5306 34.9818C45.8997 30.1396 44.811 25.8555 41.3142 22.2443H43.1121C44.9925 22.2443 46.8893 22.2443 48.7697 22.2443C49.6439 22.2443 50.2377 21.9981 50.5016 21.5385C50.782 21.0789 50.6995 20.4552 50.2872 19.7001L50.3037 19.6837ZM35.3598 19.8314C35.0299 20.1926 34.898 20.6193 34.9969 21.0461C35.0959 21.5057 35.4423 21.8832 35.9536 22.113C37.0587 22.589 38.3123 23.2292 39.3514 24.2469C41.5287 26.4136 42.4688 28.9906 42.2214 32.1093C42.2214 32.1093 42.2214 32.0929 42.2049 32.0765C42.1555 32.0273 42.106 31.9616 42.0565 31.9124C38.2628 28.1535 34.4031 24.3125 30.6754 20.6029L30.6259 20.5537C30.0816 20.012 29.6363 19.6673 29.1579 19.6673C28.6631 19.6673 28.2343 19.9956 27.7064 20.5373L25.3642 22.8845C22.4447 25.7898 19.4428 28.7937 16.4738 31.7482C16.4078 31.8139 16.3418 31.896 16.2759 31.978C16.2264 32.0437 16.1274 32.1586 16.0614 32.2242C16.0614 32.1586 16.0614 32.0273 16.0779 31.9616C16.0779 31.8631 16.0944 31.7482 16.0944 31.6497C15.9625 27.3492 18.1892 23.9186 22.1808 22.2279C22.5602 22.0638 23.5499 21.6534 23.3189 20.5373C23.1045 19.4211 22.0654 19.3883 21.6695 19.3883C21.2737 19.3883 21.6365 19.3883 21.62 19.3883C19.3273 19.3883 17.0016 19.3883 14.7584 19.3883H11.6245C12.1358 18.6824 12.7131 18.2064 13.1914 17.8617C16.045 15.7935 19.1129 15.3175 22.3293 16.4173C22.7746 16.565 23.5334 16.8276 24.2096 16.2367C24.688 15.8099 24.655 15.2847 24.589 14.8579C24.523 14.4475 24.2426 14.2013 24.0282 13.9879C23.9787 13.9551 23.9457 13.9059 23.8962 13.873C22.6922 12.6584 21.4716 11.4601 20.2675 10.2455C19.3438 9.32628 18.4201 8.40708 17.4965 7.48788C21.752 6.94621 26.2714 9.83513 27.5745 14.0372C27.591 14.1028 27.624 14.1849 27.6405 14.267C27.8219 14.9236 28.0858 15.8099 29.2074 15.7771C30.2631 15.7607 30.5105 14.8907 30.6919 14.2506C30.7084 14.1849 30.7249 14.1193 30.7579 14.0536C31.995 10.0485 36.1185 7.17601 40.3411 7.40581C40.5225 7.40581 40.7205 7.45505 40.9679 7.48788L39.9947 8.42349C38.8896 9.49043 37.8339 10.5245 36.7783 11.5586C36.4154 11.9197 36.0526 12.2809 35.6897 12.642C35.2443 13.0852 34.7825 13.5612 34.3207 14.0044C33.6444 14.6609 33.5289 15.3339 33.9578 16.0069C34.5516 16.9425 35.5247 16.5814 35.8876 16.4501C40.2751 14.8251 44.4317 16.6799 46.5759 19.2241C46.6254 19.2898 46.6914 19.339 46.7409 19.3883C46.7409 19.3883 46.7409 19.3883 46.7574 19.4047C46.6749 19.4047 46.5924 19.3718 46.4935 19.3718C44.0688 19.3718 41.5947 19.3718 39.2195 19.3718H36.7453C36.333 19.3718 35.8051 19.3718 35.3928 19.815L35.3598 19.8314ZM27.1126 51.5275C27.0797 51.429 27.1126 51.0679 27.1126 50.8052C27.2281 48.8519 27.3436 46.8822 27.459 44.9289C27.591 42.8115 27.7229 40.612 27.8549 38.4617C28.0033 35.9175 28.1353 33.324 28.2837 30.8126C28.3662 29.3189 28.4487 27.8252 28.5312 26.3315C28.5476 25.954 28.5806 25.5765 28.5971 25.1989C28.6301 24.7557 28.6631 24.2961 28.6796 23.8365C28.6961 23.4426 28.9765 23.1635 29.1414 23.1635C29.3064 23.1635 29.5703 23.4426 29.6033 23.8694C29.8837 29.0563 30.1971 34.6371 30.56 40.9238C30.6424 42.3026 30.7249 43.6978 30.8074 45.0438C30.9228 46.9479 31.0548 48.9176 31.1537 50.8545V51.0022C31.1702 51.232 31.1867 51.4618 31.1867 51.5767C31.1208 51.5767 31.0383 51.5767 30.9558 51.5767C30.8569 51.5767 30.7579 51.5767 30.6424 51.5767C30.527 51.5767 30.5435 51.5767 30.494 51.5767C30.1971 51.5767 29.8837 51.5767 29.5868 51.5767C29.4548 51.5767 29.3064 51.5767 29.1744 51.5767H27.8384C27.5415 51.5767 27.2281 51.5767 27.1291 51.5439L27.1126 51.5275Z" fill="#1F2426"/>
</g>
</svg>
